<?xml version="1.0" standalone="no"?>
<!DOCTYPE svg PUBLIC "-//W3C//DTD SVG 20010904//EN"
 "http://www.w3.org/TR/2001/REC-SVG-20010904/DTD/svg10.dtd">
<svg version="1.0" xmlns="http://www.w3.org/2000/svg"
 width="1599.000000pt" height="1599.000000pt" viewBox="0 0 1599.000000 1599.000000"
 preserveAspectRatio="xMidYMid meet">

<g transform="translate(0.000000,1599.000000) scale(0.100000,-0.100000)"
fill="#000000" stroke="none">
<path d="M0 7995 l0 -7995 7995 0 7995 0 0 7995 0 7995 -7995 0 -7995 0 0
-7995z m9270 4662 c464 -78 856 -254 1211 -543 157 -128 394 -399 511 -584
125 -200 243 -478 301 -710 15 -61 2 -53 167 -105 649 -205 1186 -674 1484
-1297 72 -150 157 -407 190 -573 146 -744 -50 -1501 -537 -2080 -309 -368
-702 -624 -1201 -781 l-59 -19 -33 -122 c-39 -143 -125 -360 -195 -491 -341
-641 -959 -1103 -1669 -1250 -228 -47 -206 -47 -1985 -47 l-1680 0 0 580 0
580 1680 5 1680 5 105 27 c198 49 364 131 516 254 90 72 262 267 264 297 0 4
-958 7 -2130 7 l-2130 0 0 1575 0 1575 1708 2 c1900 3 1728 -3 1910 69 166 66
328 171 436 282 80 83 226 277 226 302 0 3 -888 5 -1972 5 -1253 0 -2022 4
-2108 10 -174 14 -282 40 -399 96 -84 41 -107 59 -205 158 -76 76 -151 167
-240 291 -181 251 -319 437 -388 522 -32 40 -58 75 -58 78 0 3 1215 5 2700 5
1485 0 2700 3 2700 7 0 15 -77 143 -125 208 -67 90 -220 236 -315 299 -130 88
-281 152 -450 194 -58 15 -302 17 -2445 22 -2580 7 -2430 4 -2588 59 -209 73
-304 171 -612 626 -81 121 -190 278 -241 348 -52 70 -94 130 -94 133 0 2 1342
3 2983 1 2799 -2 2988 -4 3087 -20z m-1371 -9350 c42 -28 89 -104 73 -119 -4
-3 -31 -15 -60 -26 l-52 -20 -20 28 c-46 65 -162 59 -190 -10 -20 -48 17 -89
113 -125 124 -47 177 -109 177 -210 0 -92 -48 -163 -142 -211 -61 -31 -181
-33 -243 -5 -45 20 -91 69 -112 118 -23 56 -18 68 38 92 61 25 79 26 79 6 0
-55 60 -105 125 -105 70 0 115 39 115 99 0 42 -25 64 -127 111 -48 23 -96 48
-106 58 -67 60 -77 190 -20 259 16 21 54 51 84 66 49 26 62 28 140 25 74 -3
91 -7 128 -31z m-3268 13 c150 -42 205 -206 102 -309 -28 -28 -32 -36 -19 -43
72 -40 101 -98 94 -184 -6 -65 -42 -116 -109 -154 -42 -24 -54 -25 -226 -28
l-183 -4 0 366 0 366 153 0 c83 0 168 -5 188 -10z m719 -212 c167 -452 180
-488 180 -499 0 -6 -27 -9 -72 -7 l-73 3 -29 83 -28 82 -138 0 -138 0 -28 -82
-29 -83 -72 -3 c-55 -2 -73 0 -73 10 0 7 16 56 36 108 20 52 75 203 124 335
48 132 91 248 95 258 6 14 20 17 85 17 l77 0 83 -222z m661 193 c154 -60 238
-216 212 -394 -13 -94 -36 -140 -98 -203 -80 -81 -133 -97 -337 -102 l-168 -4
0 367 0 367 168 -4 c142 -4 175 -8 223 -27z m459 -336 l0 -366 -67 3 -68 3 -3
350 c-1 192 0 356 3 362 3 9 27 13 70 13 l65 0 0 -365z m543 358 c2 -5 -13
-102 -34 -218 -53 -292 -51 -335 16 -371 40 -21 115 -15 154 13 48 35 68 96
111 337 22 126 40 233 40 237 0 5 32 9 71 9 l71 0 -6 -27 c-3 -16 -22 -120
-41 -233 -40 -230 -49 -269 -76 -321 -31 -62 -71 -101 -134 -130 -111 -53
-254 -36 -323 38 -72 77 -75 137 -23 431 23 128 41 235 41 237 0 8 129 5 133
-2z m1599 2 c2 -3 0 -33 -5 -67 -9 -56 -16 -69 -61 -118 -43 -48 -329 -350
-363 -385 -7 -7 -9 -16 -5 -19 3 -4 80 -6 170 -5 90 0 165 -1 167 -3 2 -2 -2
-30 -8 -63 l-12 -60 -254 -3 c-140 -1 -258 1 -262 5 -16 16 18 134 47 166 34
37 18 20 219 231 88 92 161 174 163 182 3 12 -24 14 -157 14 -89 0 -161 4
-161 8 0 5 5 34 11 65 l12 57 247 0 c136 0 249 -2 252 -5z m518 -180 c54 -265
100 -508 100 -527 0 -15 -10 -18 -69 -18 -68 0 -70 1 -75 28 -3 15 -10 53 -16
85 l-12 58 -136 -3 -136 -3 -44 -82 -44 -83 -74 0 c-41 0 -74 3 -74 6 0 11
365 690 383 712 7 9 33 12 85 10 l75 -3 37 -180z m521 -5 c41 -104 77 -190 81
-190 3 0 46 54 95 121 48 66 111 151 139 187 l50 67 73 3 73 3 -6 -28 c-6 -29
-75 -424 -105 -598 l-17 -100 -67 -3 c-48 -2 -67 1 -67 9 0 25 72 413 81 437
16 42 3 35 -37 -20 -21 -29 -76 -103 -122 -165 -81 -110 -84 -112 -120 -110
l-37 2 -65 164 c-64 161 -65 164 -72 125 -4 -21 -22 -129 -40 -239 l-34 -200
-67 -3 -68 -3 5 33 c4 18 17 96 31 173 13 77 31 181 39 230 26 156 47 270 51
283 3 8 26 12 68 12 l63 0 75 -190z m1081 -150 c37 -184 67 -347 67 -362 1
-28 1 -28 -68 -28 -77 0 -71 -8 -87 95 -12 82 0 76 -152 73 l-136 -3 -44 -82
-44 -83 -74 0 c-41 0 -74 3 -74 8 1 4 43 86 95 182 52 96 138 257 192 358 l98
183 80 -3 80 -3 67 -335z m501 188 c129 -301 141 -328 148 -320 3 4 11 52 18
107 7 55 22 159 35 230 l23 130 68 3 68 3 -7 -50 c-5 -39 -58 -349 -111 -648
l-6 -33 -67 0 -68 0 -66 153 c-37 83 -87 198 -111 254 -43 101 -57 116 -57 62
0 -28 -66 -434 -75 -456 -5 -14 -135 -19 -135 -5 0 4 14 84 30 177 17 94 44
251 61 350 17 99 33 183 36 188 2 4 37 7 77 7 l74 0 65 -152z"/>
<path d="M11245 9488 c-3 -7 -18 -53 -35 -103 -50 -145 -232 -501 -262 -513
-4 -2 -8 -8 -8 -14 0 -31 -231 -310 -338 -408 l-77 -70 86 -80 c95 -88 225
-234 311 -350 123 -165 264 -429 327 -612 18 -54 37 -98 42 -98 14 0 110 59
180 111 80 59 208 191 271 280 55 76 137 238 167 324 80 241 82 551 5 790 -61
187 -167 362 -305 502 -88 89 -149 137 -259 203 -89 54 -98 57 -105 38z"/>
<path d="M6950 7385 l0 -385 1028 0 c565 0 1275 -3 1579 -6 303 -4 556 -3 562
0 17 11 -69 171 -151 282 -174 232 -437 406 -719 474 -82 19 -115 20 -1191 20
l-1108 0 0 -385z"/>
<path d="M4422 3118 l3 -83 83 -3 c80 -3 84 -2 112 27 38 38 40 82 5 116 -22
23 -32 25 -115 25 l-91 0 3 -82z"/>
<path d="M4422 2823 l3 -88 103 0 c97 0 105 2 123 24 28 34 25 96 -6 126 -22
23 -31 25 -125 25 l-101 0 3 -87z"/>
<path d="M5181 3139 c-32 -81 -79 -228 -74 -233 6 -6 173 -9 173 -3 0 1 -20
60 -45 131 -38 112 -45 126 -54 105z"/>
<path d="M5755 3189 c-3 -8 -4 -113 -3 -234 l3 -220 89 2 c136 3 208 48 235
148 34 124 -11 245 -105 287 -58 25 -211 37 -219 17z"/>
<path d="M8925 3038 c-33 -66 -61 -124 -63 -129 -4 -9 161 -13 170 -4 2 3 -3
47 -13 98 -10 50 -19 107 -19 125 0 17 -3 32 -7 32 -5 -1 -35 -55 -68 -122z"/>
<path d="M10495 3039 c-33 -66 -61 -125 -63 -130 -2 -5 34 -9 82 -9 100 0 97
-7 71 127 -8 43 -15 90 -15 106 0 15 -3 27 -7 27 -5 -1 -35 -55 -68 -121z"/>
</g>
</svg>
